<svg xmlns="http://www.w3.org/2000/svg" viewBox="0 0 71.09 114.9">
	<path
		d="M70.74,52.29c-2.17,5.25-8.5,17.1-14.46,18.06.19,10.48.53,25.16,1.07,35.65,1.23,7.17-4.35,11.46-10.78,7.45-3.62-2.72-1.13-34.76-5.32-35.27-2.78.68-2.37,9.77-3.06,12.44-.91,6.41-1.45,12.91-2.86,19.23-.7,3-3.29,3.66-5.43,3.66-5.45-.64-6.87-2.25-6.51-7.75.78-12,2.49-44.93,2.51-49.47,1.56-11-3.21-19.09-11.68-25.73a13.68,13.68,0,0,1-5.17-7.37C7.79,19.7,4.39,9.41,4.44,8.17,4.61,3.77,9,1.36,11.72,2c5,1.18,6.86,10.17,8.62,14.46,1.79,7,8.65,6.54,15,8.18-4.93-3.52-7-13.79-2.7-19A14.09,14.09,0,0,1,45.08,1.38C56.68,2.87,59.53,20.65,49,25.5a22.64,22.64,0,0,1,7.14,4.84C59.59,34.89,72.6,46.77,70.74,52.29ZM3.64,0A13.85,13.85,0,0,0,1.15,10.14C-1.19,7.28.24,1.1,3.64,0Z" fill="var(--c-black)" />
</svg>