<svg class="start-composition__left" xmlns="http://www.w3.org/2000/svg" viewBox="0 0 370.4 474.31">
	<path d="M0,29H370.4V453.68L0,431.75Z" />
	<path d="M370.21,457.42v16.89L36.9,437.74Z" />
	<circle class="green" cx="41.75" cy="65.11" r="5" />
	<circle class="green" cx="61.75" cy="65.11" r="5" />
	<circle class="green" cx="81.75" cy="65.11" r="5" />
	<path class="white2" d="M41.75,422.63V99.13" />
	<rect class="white" x="159.73" y="12.09" width="177.37" height="55.71"
		transform="translate(-3.14 35.02) rotate(-8.01)" />
	<rect x="167.82" y="16.1" width="158.77" height="41.75" transform="translate(-2.74 34.59) rotate(-7.96)" />
	<path class="green"
		d="M216.85,49a6.1,6.1,0,0,1-4.5-1.79,7.69,7.69,0,0,1-2.27-4.5,7.11,7.11,0,0,1,1.19-5.28,6.61,6.61,0,0,1,9.63-1.34,7.27,7.27,0,0,1,2.6,4.8A7.76,7.76,0,0,1,223,44.8a6.51,6.51,0,0,1-2.3,2.94,1.78,1.78,0,0,0,1.64.5,2.71,2.71,0,0,0,1.45-.63l.48,3.46a5.13,5.13,0,0,1-2.06.76,4.85,4.85,0,0,1-4.4-1.75Zm.4-3.89a2.45,2.45,0,0,0,1.87-1.2,3.53,3.53,0,0,0,.44-2.47,3.46,3.46,0,0,0-1.1-2.26,2.56,2.56,0,0,0-3.87.41l-.1.14a4.06,4.06,0,0,0,.66,4.73A2.62,2.62,0,0,0,217.25,45.08Z" />
	<path class="green"
		d="M224.76,47.65,228,33.09l3.67-.51,7.09,13.12-4.09.57-1.24-2.45-4.13.58-.56,2.7ZM230,41.07l1.85-.25-1.38-3.12Z" />
	<path class="white"
		d="M242.68,36.38a2.45,2.45,0,0,1,.89,1.64,2.6,2.6,0,0,1-.41,1.86,2.15,2.15,0,0,1-1.48.94,2.21,2.21,0,0,1-1.72-.49,2.53,2.53,0,0,1-.9-1.68,2.48,2.48,0,0,1,.42-1.83,2.14,2.14,0,0,1,3.2-.44Z" />
	<path class="white" d="M189.88,52l-.56-4,5.61-2.89-6.18-1.24-.56-4,10.21,2.75.55,3.93Z" />
	<path class="white" d="M200,54.5l-.37-2.66,12-1.67.37,2.66Z" />
	<path class="white"
		d="M248.49,42.58a6.88,6.88,0,0,1-2.72-4.87,7.09,7.09,0,0,1,1.32-5.43,7,7,0,0,1,4.85-2.7,10.21,10.21,0,0,1,1.56-.09c.36,0,.72.08,1.09.15s.61.18,1.06.29l.54,3.88c-3.62-1.43-6.91.32-6.36,3.42A3.16,3.16,0,0,0,253,40.28l.31-.05a2.37,2.37,0,0,0,1.45-.59l-.59-4.22,3.9-.54.86,6.21a5.64,5.64,0,0,1-2,1.78,7.5,7.5,0,0,1-3.08,1A6.92,6.92,0,0,1,248.49,42.58Z" />
	<path class="white"
		d="M258.61,28.91l3.85-.54,1.13,8.07c.2,1.47,1.1,2,2.18,1.84s1.76-.89,1.56-2.37l-1.13-8.06,3.86-.53,1.12,8.06a6,6,0,0,1-1,4.65A6.16,6.16,0,0,1,262,41.17a5.92,5.92,0,0,1-2.24-4.2Z" />
	<path class="white"
		d="M286.16,39.1l-4.51.63-4-4.43-.54.07.68,4.9-3.85.54L272,27.05l6.06-.84a4.64,4.64,0,0,1,3.6.78,4.37,4.37,0,0,1,1.75,3,4.44,4.44,0,0,1-1.76,4.29Zm-7.74-7.05a1.09,1.09,0,0,0,1-1.31,1.07,1.07,0,0,0-1.34-.93l-1.78.25.31,2.23Z" />
	<path class="white"
		d="M284.51,25.3l3.85-.53,1.13,8.06c.2,1.48,1.1,2,2.18,1.85s1.76-.9,1.56-2.37l-1.13-8.06,3.86-.54,1.12,8.06a6,6,0,0,1-1,4.66,5.86,5.86,0,0,1-3.87,2.13,5.79,5.79,0,0,1-4.3-1,6,6,0,0,1-2.24-4.21l-1.12-8.06Z" />
	<text class="letters white" transform="translate(19.3 102.32)">1<tspan x="0" y="35">2</tspan>
		<tspan x="0" y="70">3</tspan>
		<tspan x="0" y="105">4</tspan>
		<tspan x="0" y="140">5</tspan>
		<tspan x="0" y="175">6</tspan>
		<tspan x="0" y="210">7</tspan>
		<tspan x="0" y="245">8</tspan>
		<tspan x="0" y="280">9</tspan>
		<tspan x="0" y="315">10</tspan>
	</text>
	<text class="text white" transform="translate(68.31 129.18)">Научим
		<tspan x="0" y="30">разрабатывать автотесты и</tspan>
		<tspan x="0" y="53">выстраивать процессы</tspan>
		<tspan x="0" y="76">в самом востребованном стеке</tspan>
	</text>
	<text class="text white" transform="translate(68.31 265)">Поможем
		<tspan x="0" y="30">перейти на новую ступень</tspan>
		<tspan x="0" y="53">в тестировании и повысить</tspan>
		<tspan x="0" y="76">свою рыночную ценность как</tspan>
		<tspan x="0" y="99">специалиста</tspan>
	</text>
</svg>